<svg width="360" height="192" viewBox="343 351 360 192" fill="none" xmlns="http://www.w3.org/2000/svg">
<path d="M595.629 376.38C568.429 393.58 535.962 396.88 523.129 396.38C510.296 396.88 477.829 393.581 450.629 376.381C436.629 368.547 402.23 357.581 376.63 376.381C351.03 395.181 349.63 431.547 352.13 447.381C356.963 477.214 397.93 536.88 523.129 536.88C648.329 536.88 689.296 477.214 694.129 447.38C696.629 431.547 695.229 395.18 669.629 376.38C644.029 357.581 609.629 368.547 595.629 376.38Z" fill="#396337"/>
<path d="M526.5 470.5C468.5 470.5 436.167 498.789 421 511.289C493.4 545.92 586.833 525.718 624.5 511.289C613.5 499.289 576.602 470.5 526.5 470.5Z" fill="#A2B26A" stroke="#A2B26A" stroke-width="12" stroke-linecap="round"/>
<path d="M595.629 376.38C568.429 393.58 535.962 396.88 523.129 396.38C510.296 396.88 477.829 393.581 450.629 376.381C436.629 368.547 402.23 357.581 376.63 376.381C358.229 389.894 352.331 412.484 351.398 430L694.861 430C693.928 412.484 688.03 389.894 669.629 376.381C644.029 357.581 609.629 368.547 595.629 376.38Z" fill="white" stroke="black" stroke-width="9" stroke-linecap="round"/>
<path d="M595.629 376.38C568.429 393.58 535.962 396.88 523.129 396.38C510.296 396.88 477.829 393.581 450.629 376.381C436.629 368.547 402.23 357.581 376.63 376.381C351.03 395.181 349.63 431.547 352.13 447.381C356.963 477.214 397.93 536.88 523.129 536.88C648.329 536.88 689.296 477.214 694.129 447.38C696.629 431.547 695.229 395.18 669.629 376.38C644.029 357.581 609.629 368.547 595.629 376.38Z" stroke="black" stroke-width="12" stroke-linecap="round"/>
</svg>
