<svg width="242" height="146" viewBox="204 432 242 146" fill="none" xmlns="http://www.w3.org/2000/svg">
<path d="M384.516 568.807C391.387 572.145 407.211 574.847 420.836 568.807C441.998 559.425 440.986 533.367 439.759 526.619" stroke="black" stroke-width="5" stroke-linecap="round"/>
<path d="M265.788 568.807C258.917 572.145 243.093 574.847 229.468 568.807C208.306 559.425 209.319 533.367 210.546 526.619" stroke="black" stroke-width="5" stroke-linecap="round"/>
<path d="M291.06 539.541C303.85 532.509 319.118 531.16 325.153 531.365C331.187 531.16 346.454 532.509 359.245 539.541C365.828 542.743 382.005 547.227 394.043 539.541C406.081 531.855 406.739 516.988 405.564 510.515C405.564 490.558 384.027 436.5 325.153 436.5C266.278 436.5 244.741 488.063 244.741 510.515C243.565 516.988 244.223 531.855 256.262 539.541C268.3 547.227 284.476 542.744 291.06 539.541Z" fill="#396337" stroke="black" stroke-width="8" stroke-linecap="round"/>
<path d="M291.297 538.237C304.061 531.414 319.297 530.105 325.319 530.304C331.341 530.105 346.577 531.414 359.341 538.237C365.911 541.344 382.054 545.694 394.067 538.237C406.025 530.814 406.731 516.489 405.581 510.162C405.57 510.102 405.565 510.043 405.564 509.981C405.561 509.059 405.51 508.064 405.408 507.003C405.399 506.901 405.372 506.8 405.332 506.707C395.595 484.235 368.082 479.414 352.478 479.414C300.998 481.307 286.73 519.044 285.854 538.947C285.824 539.622 286.475 540.101 287.116 539.888C288.747 539.345 290.164 538.773 291.297 538.237Z" fill="#A2B26A" stroke="black" stroke-width="8" stroke-linecap="round"/>
</svg>
