<svg width="357" height="192" viewBox="153 269 357 192" fill="none" xmlns="http://www.w3.org/2000/svg">
<path d="M257.872 436.001C285.072 418.801 317.538 415.501 330.372 416.001C343.205 415.501 375.672 418.8 402.871 436C416.871 443.834 451.271 454.8 476.871 436C502.471 417.2 503.871 380.834 501.371 365.001C496.537 335.167 455.571 275.501 330.372 275.501C205.172 275.501 164.205 335.167 159.372 365.001C156.872 380.834 158.272 417.201 183.872 436.001C209.472 454.801 243.872 443.834 257.872 436.001Z" fill="#396337"/>
<path d="M470.372 320.501H190.372C202.038 305.334 247.872 275.301 337.872 276.501C367.538 276.501 435.572 285.301 470.372 320.501Z" fill="white" stroke="black" stroke-width="12" stroke-linecap="round"/>
<path d="M273.872 378.001C223.872 374.801 181.038 399.001 165.872 411.501C174.272 431.901 193.038 440.334 201.372 442.001C213.705 444.667 245.472 445.101 273.872 425.501C302.272 405.901 349.372 412.334 369.372 418.001C358.372 406.001 323.872 381.201 273.872 378.001Z" fill="#A2B26A" stroke="#A2B26A" stroke-width="12" stroke-linecap="round"/>
<path d="M257.872 436.001C285.072 418.801 317.538 415.501 330.372 416.001C343.205 415.501 375.672 418.8 402.871 436C416.871 443.834 451.271 454.8 476.871 436C502.471 417.2 503.871 380.834 501.371 365.001C496.537 335.167 455.571 275.501 330.372 275.501C205.172 275.501 164.205 335.167 159.372 365.001C156.872 380.834 158.272 417.201 183.872 436.001C209.472 454.801 243.872 443.834 257.872 436.001Z" stroke="black" stroke-width="12" stroke-linecap="round"/>
</svg>
