<svg width="220" height="153" viewBox="232 173 220 153" fill="none" xmlns="http://www.w3.org/2000/svg">
<path d="M442.5 181.5H240C237.667 227.5 250 317.5 346 317.5C428.5 317.5 443.667 227.5 442.5 181.5Z" fill="#396337"/>
<path d="M417 272C356.2 251.6 295 275.5 272 290C282.5 299.333 313 317.9 351 317.5C389 317.1 410.833 287 417 272Z" fill="#A2B36A"/>
<path d="M441 216H241.5V183H441V216Z" fill="white" stroke="black" stroke-width="9" stroke-linecap="round"/>
<path d="M437.625 181.5H244.753C242.09 181.5 239.888 183.58 239.818 186.242C238.582 233.401 253.201 317.5 346 317.5C425.681 317.5 442.551 233.546 442.56 186.365C442.561 183.653 440.337 181.5 437.625 181.5Z" stroke="black" stroke-width="12" stroke-linecap="round"/>
</svg>
