<svg width="792" height="173" viewBox="0 0 792 173" fill="none" xmlns="http://www.w3.org/2000/svg">
<ellipse cx="37.4991" cy="42.9996" rx="37.4991" ry="42.9996" transform="matrix(-1 0 0 1 739.502 41.5007)" fill="black"/>
<ellipse cx="90.001" cy="84.501" rx="37.5" ry="43" fill="black"/>
<path d="M5.50098 5.50098L159.001 34.501C166.334 35.501 182.001 34.901 186.001 24.501" stroke="black" stroke-width="11" stroke-linecap="round"/>
<path d="M113.296 164.303C120.358 160.748 137.626 150.252 150.206 136.699" stroke="black" stroke-width="4" stroke-linecap="round"/>
<path d="M200.501 40.4786C203.623 38.4917 210.243 33.2379 211.746 28.1173" stroke="black" stroke-width="4" stroke-linecap="round"/>
<path d="M786.501 5.50098L633.005 34.5007C625.671 35.5007 610.005 34.9007 606.005 24.5008" stroke="black" stroke-width="11" stroke-linecap="round"/>
<path d="M678.708 164.301C671.647 160.747 654.379 150.251 641.8 136.698" stroke="black" stroke-width="4" stroke-linecap="round"/>
<path d="M591.506 40.4783C588.384 38.4915 581.764 33.2377 580.261 28.1171" stroke="black" stroke-width="4" stroke-linecap="round"/>
</svg>
