<svg width="980" height="270" viewBox="0 0 980 270" fill="none" xmlns="http://www.w3.org/2000/svg">
<path d="M295 154.66C295 158.832 293.35 162.832 290.412 165.782C287.475 168.731 283.491 170.388 279.336 170.388C275.182 170.388 271.198 168.731 268.26 165.782C265.323 162.832 263.673 158.832 263.673 154.66C263.635 121.996 250.695 90.681 227.693 67.584C204.691 44.4871 173.504 31.4945 140.973 31.4563C111.903 31.4875 84.0322 43.097 63.4764 63.7375C42.9205 84.3779 31.3585 112.363 31.3274 141.553C31.3585 167.267 41.5452 191.919 59.6532 210.101C77.7611 228.284 102.312 238.512 127.92 238.544C150.069 238.519 171.304 229.674 186.965 213.948C202.627 198.222 211.436 176.9 211.46 154.66C211.439 135.895 204.007 117.905 190.792 104.636C177.578 91.3678 159.661 83.9043 140.973 83.8835C125.746 83.9008 111.148 89.9823 100.381 100.794C89.6137 111.605 83.5571 126.264 83.5398 141.553C83.5398 153.372 88.2156 164.707 96.5386 173.064C104.862 181.421 116.15 186.117 127.92 186.117C136.229 186.117 144.197 182.802 150.072 176.903C155.947 171.004 159.248 163.003 159.248 154.66C159.248 149.794 157.322 145.126 153.895 141.685C150.468 138.244 145.82 136.311 140.973 136.311C139.593 136.313 138.269 136.864 137.292 137.844C140.5 139.381 143.092 141.968 144.642 145.18C146.192 148.392 146.608 152.038 145.822 155.519C145.035 159 143.093 162.108 140.314 164.334C137.536 166.56 134.086 167.77 130.531 167.767C123.607 167.767 116.967 165.005 112.071 160.089C107.175 155.173 104.425 148.506 104.425 141.553C104.425 131.82 108.275 122.486 115.13 115.603C121.984 108.721 131.28 104.854 140.973 104.854C147.487 104.854 153.937 106.143 159.955 108.646C165.973 111.149 171.441 114.817 176.047 119.442C180.653 124.067 184.307 129.558 186.8 135.6C189.292 141.643 190.575 148.12 190.575 154.66C190.558 171.34 183.951 187.332 172.205 199.127C160.459 210.922 144.532 217.555 127.92 217.573C107.849 217.549 88.6062 209.532 74.4135 195.28C60.2207 181.029 52.2366 161.708 52.2124 141.553C52.2366 117.923 61.5959 95.2676 78.2366 78.5585C94.8773 61.8493 117.44 52.4515 140.973 52.4272C167.967 52.4584 193.845 63.2394 212.933 82.405C232.02 101.571 242.757 127.556 242.788 154.66C242.753 185.24 230.64 214.557 209.106 236.179C187.571 257.802 158.374 269.965 127.92 270C94.0054 269.962 61.4905 256.417 37.509 232.337C13.5275 208.257 0.0380038 175.608 0 141.553C0.0414596 104.024 14.9073 68.0434 41.336 41.506C67.7646 14.9686 103.598 0.0416301 140.973 0C181.81 0.0451001 220.961 16.3541 249.837 45.3487C278.713 74.3434 294.955 113.656 295 154.66Z" fill="black"/>
<path d="M980 154.66C980 158.832 978.35 162.832 975.412 165.782C972.475 168.731 968.491 170.388 964.336 170.388C960.182 170.388 956.198 168.731 953.26 165.782C950.323 162.832 948.673 158.832 948.673 154.66C948.635 121.996 935.695 90.681 912.693 67.584C889.691 44.4871 858.504 31.4945 825.973 31.4563C796.903 31.4875 769.032 43.097 748.476 63.7375C727.92 84.3779 716.359 112.363 716.327 141.553C716.359 167.267 726.545 191.919 744.653 210.101C762.761 228.284 787.312 238.512 812.92 238.544C835.069 238.519 856.304 229.674 871.965 213.948C887.627 198.222 896.436 176.9 896.46 154.66C896.439 135.895 889.007 117.905 875.792 104.636C862.578 91.3678 844.661 83.9043 825.973 83.8835C810.746 83.9008 796.148 89.9823 785.381 100.794C774.614 111.605 768.557 126.264 768.54 141.553C768.54 153.372 773.216 164.707 781.539 173.064C789.862 181.421 801.15 186.117 812.92 186.117C821.229 186.117 829.197 182.802 835.072 176.903C840.947 171.004 844.248 163.003 844.248 154.66C844.248 149.794 842.322 145.126 838.895 141.685C835.468 138.244 830.82 136.311 825.973 136.311C824.593 136.313 823.269 136.864 822.292 137.844C825.5 139.381 828.092 141.968 829.642 145.18C831.192 148.392 831.608 152.038 830.822 155.519C830.035 159 828.093 162.108 825.314 164.334C822.536 166.56 819.086 167.77 815.531 167.767C808.607 167.767 801.967 165.005 797.071 160.089C792.175 155.173 789.425 148.506 789.425 141.553C789.425 131.82 793.275 122.486 800.13 115.603C806.984 108.721 816.28 104.854 825.973 104.854C832.487 104.854 838.937 106.143 844.955 108.646C850.973 111.149 856.441 114.817 861.047 119.442C865.653 124.067 869.307 129.558 871.8 135.6C874.292 141.643 875.575 148.12 875.575 154.66C875.558 171.34 868.951 187.332 857.205 199.127C845.459 210.922 829.532 217.555 812.92 217.573C792.849 217.549 773.606 209.532 759.413 195.28C745.221 181.029 737.237 161.708 737.212 141.553C737.237 117.923 746.596 95.2676 763.237 78.5585C779.877 61.8493 802.44 52.4515 825.973 52.4272C852.967 52.4584 878.845 63.2394 897.933 82.405C917.02 101.571 927.757 127.556 927.788 154.66C927.753 185.24 915.64 214.557 894.106 236.179C872.571 257.802 843.374 269.965 812.92 270C779.005 269.962 746.49 256.417 722.509 232.337C698.527 208.257 685.038 175.608 685 141.553C685.041 104.024 699.907 68.0434 726.336 41.506C752.765 14.9686 788.598 0.0416301 825.973 0C866.81 0.0451001 905.961 16.3541 934.837 45.3487C963.713 74.3434 979.955 113.656 980 154.66Z" fill="black"/>
</svg>
