<svg width="1246" height="378" viewBox="0 0 1246 378" fill="none" xmlns="http://www.w3.org/2000/svg">
<path d="M86.741 94.7741L115.423 65.2611L147.845 32.4228H213.106L262.156 80.6411L310.79 32.0071H376.051L408.058 64.8455L437.987 94.7741L408.058 162.945L343.213 228.622L261.74 309.678L180.268 228.622L115.423 162.945L86.741 94.7741Z" fill="url(#paint0_linear_8_214)"/>
<path d="M212.993 0H147.997V32.589H115.498V65.1779H83V162.945H115.498V195.534H147.997V228.123H180.495V260.712H212.993V293.301H245.491V325.89H277.99V293.301H310.488V260.712H342.986V228.123H375.485V195.534H407.983V162.945H440.481V65.1779H407.983V32.589H375.485V0H310.488V32.589H277.99V65.1779H245.491V32.589H212.993V0ZM212.993 32.589V65.1779H245.491V97.7669H277.99V65.1779H310.488V32.589H375.485V65.1779H407.983V162.945H375.485V195.534H342.986V228.123H310.488V260.712H277.99V293.301H245.491V260.712H212.993V228.123H180.495V195.534H147.997V162.945H115.498V65.1779H147.997V32.589H212.993Z" fill="black"/>
<path d="M808.741 94.7741L837.423 65.2611L869.845 32.4228H935.106L984.156 80.6411L1032.79 32.0071H1098.05L1130.06 64.8455L1159.99 94.7741L1130.06 162.945L1065.21 228.622L983.74 309.678L902.268 228.622L837.423 162.945L808.741 94.7741Z" fill="url(#paint1_linear_8_214)"/>
<path d="M934.993 0H869.997V32.589H837.498V65.1779H805V162.945H837.498V195.534H869.997V228.123H902.495V260.712H934.993V293.301H967.491V325.89H999.99V293.301H1032.49V260.712H1064.99V228.123H1097.48V195.534H1129.98V162.945H1162.48V65.1779H1129.98V32.589H1097.48V0H1032.49V32.589H999.99V65.1779H967.491V32.589H934.993V0ZM934.993 32.589V65.1779H967.491V97.7669H999.99V65.1779H1032.49V32.589H1097.48V65.1779H1129.98V162.945H1097.48V195.534H1064.99V228.123H1032.49V260.712H999.99V293.301H967.491V260.712H934.993V228.123H902.495V195.534H869.997V162.945H837.498V65.1779H869.997V32.589H934.993Z" fill="black"/>
<rect y="347" width="30" height="30" fill="black"/>
<rect x="30" y="317" width="30" height="30" fill="black"/>
<rect x="57" y="347" width="30" height="30" fill="black"/>
<rect x="87" y="317" width="30" height="30" fill="black"/>
<rect x="114" y="347" width="30" height="30" fill="black"/>
<rect x="1102" y="347" width="30" height="30" fill="black"/>
<rect x="1132" y="317" width="30" height="30" fill="black"/>
<rect x="1159" y="347" width="30" height="30" fill="black"/>
<rect x="1189" y="317" width="30" height="30" fill="black"/>
<rect x="1216" y="347" width="30" height="30" fill="black"/>
<defs>
<linearGradient id="paint0_linear_8_214" x1="262.364" y1="32.0071" x2="262.364" y2="309.678" gradientUnits="userSpaceOnUse">
<stop stop-color="#FF0000"/>
<stop offset="1" stop-color="#B70000"/>
</linearGradient>
<linearGradient id="paint1_linear_8_214" x1="984.364" y1="32.0071" x2="984.364" y2="309.678" gradientUnits="userSpaceOnUse">
<stop stop-color="#FF0000"/>
<stop offset="1" stop-color="#B70000"/>
</linearGradient>
</defs>
</svg>
