<svg width="936" height="334" viewBox="12 12 936 334" fill="none" xmlns="http://www.w3.org/2000/svg">
<path d="M174.186 17.147C175.552 12.2823 182.448 12.2823 183.814 17.147L217.478 137.059C217.95 138.738 219.262 140.05 220.941 140.522L340.853 174.186C345.718 175.552 345.718 182.448 340.853 183.814L220.941 217.478C219.262 217.95 217.95 219.262 217.478 220.941L183.814 340.853C182.448 345.718 175.552 345.718 174.186 340.853L140.522 220.941C140.05 219.262 138.738 217.95 137.059 217.478L17.147 183.814C12.2823 182.448 12.2823 175.552 17.147 174.186L137.059 140.522C138.738 140.05 140.05 138.738 140.522 137.059L174.186 17.147Z" fill="#FFA800"/>
<path d="M776.186 17.147C777.552 12.2823 784.448 12.2823 785.814 17.147L819.478 137.059C819.95 138.738 821.262 140.05 822.941 140.522L942.853 174.186C947.718 175.552 947.718 182.448 942.853 183.814L822.941 217.478C821.262 217.95 819.95 219.262 819.478 220.941L785.814 340.853C784.448 345.718 777.552 345.718 776.186 340.853L742.522 220.941C742.05 219.262 740.738 217.95 739.059 217.478L619.147 183.814C614.282 182.448 614.282 175.552 619.147 174.186L739.059 140.522C740.738 140.05 742.05 138.738 742.522 137.059L776.186 17.147Z" fill="#FFA800"/>
</svg>
