<svg width="1004" height="298" viewBox="21 15 1004 298" fill="none" xmlns="http://www.w3.org/2000/svg">
<path d="M168.676 24.0576C171.976 15.5427 184.024 15.5427 187.324 24.0576L220.659 110.065C222.078 113.726 225.507 116.218 229.427 116.436L321.527 121.561C330.645 122.069 334.368 133.527 327.289 139.297L255.792 197.578C252.749 200.059 251.439 204.09 252.443 207.886L276.028 297.061C278.364 305.89 268.616 312.971 260.942 308.023L183.419 258.034C180.12 255.907 175.88 255.907 172.581 258.034L95.0584 308.023C87.3835 312.971 77.6365 305.89 79.9715 297.061L103.557 207.886C104.561 204.09 103.251 200.059 100.208 197.578L28.7108 139.297C21.6325 133.527 25.3555 122.069 34.4734 121.561L126.573 116.436C130.493 116.218 133.922 113.726 135.341 110.065L168.676 24.0576Z" fill="#FFB800"/>
<path d="M858.676 24.0576C861.976 15.5427 874.024 15.5427 877.324 24.0576L910.659 110.065C912.078 113.726 915.507 116.218 919.427 116.436L1011.53 121.561C1020.64 122.069 1024.37 133.527 1017.29 139.297L945.792 197.578C942.749 200.059 941.439 204.09 942.443 207.886L966.028 297.061C968.364 305.89 958.616 312.971 950.942 308.023L873.419 258.034C870.12 255.907 865.88 255.907 862.581 258.034L785.058 308.023C777.384 312.971 767.636 305.89 769.972 297.061L793.557 207.886C794.561 204.09 793.251 200.059 790.208 197.578L718.711 139.297C711.632 133.527 715.355 122.069 724.473 121.561L816.573 116.436C820.493 116.218 823.922 113.726 825.341 110.065L858.676 24.0576Z" fill="#FFB800"/>
</svg>
